<?xml version="1.0" encoding="UTF-8" standalone="no"?>
<!DOCTYPE svg PUBLIC "-//W3C//DTD SVG 1.1//EN"
 "http://www.w3.org/Graphics/SVG/1.1/DTD/svg11.dtd">
<!-- Generated by graphviz version 12.2.1 (0)
 -->
<!-- Title: G Pages: 1 -->
<svg width="505pt" height="270pt"
 viewBox="0.00 0.00 505.00 269.50" xmlns="http://www.w3.org/2000/svg" xmlns:xlink="http://www.w3.org/1999/xlink">
<g id="graph0" class="graph" transform="scale(1 1) rotate(0) translate(4 265.5)">
<title>G</title>
<polygon fill="none" stroke="none" points="-4,4 -4,-265.5 501,-265.5 501,4 -4,4"/>
<g id="clust1" class="cluster">
<title>cluster_2</title>
<polygon fill="none" stroke="black" points="8,-8 8,-169 191,-169 191,-8 8,-8"/>
<text text-anchor="middle" x="99.5" y="-151.7" font-family="Times,serif" font-size="14.00">Common</text>
</g>
<g id="clust2" class="cluster">
<title>cluster_0</title>
<polygon fill="none" stroke="black" points="45,-177 45,-253.5 124,-253.5 124,-177 45,-177"/>
<text text-anchor="middle" x="84.5" y="-236.2" font-family="Times,serif" font-size="14.00">Client Only</text>
</g>
<g id="clust3" class="cluster">
<title>cluster_1</title>
<polygon fill="none" stroke="black" points="269,-92.5 269,-253.5 465,-253.5 465,-92.5 269,-92.5"/>
<text text-anchor="middle" x="367" y="-236.2" font-family="Times,serif" font-size="14.00">Server Only</text>
</g>
<g id="clust4" class="cluster">
<title>cluster_3</title>
<polygon fill="none" stroke="black" points="199,-8 199,-84.5 489,-84.5 489,-8 199,-8"/>
<text text-anchor="middle" x="344" y="-67.2" font-family="Times,serif" font-size="14.00">External Dependencies</text>
</g>
<!-- common -->
<g id="node1" class="node">
<title>common</title>
<ellipse fill="none" stroke="black" cx="60" cy="-34" rx="44.19" ry="18"/>
<text text-anchor="middle" x="60" y="-28.95" font-family="Times,serif" font-size="14.00">common</text>
</g>
<!-- types -->
<g id="node2" class="node">
<title>types</title>
<ellipse fill="none" stroke="black" cx="153" cy="-34" rx="30.37" ry="18"/>
<text text-anchor="middle" x="153" y="-28.95" font-family="Times,serif" font-size="14.00">types</text>
</g>
<!-- validators -->
<g id="node3" class="node">
<title>validators</title>
<ellipse fill="none" stroke="red" cx="118" cy="-118.5" rx="47.26" ry="18"/>
<text text-anchor="middle" x="118" y="-113.45" font-family="Times,serif" font-size="14.00">validators</text>
</g>
<!-- validators&#45;&gt;common -->
<g id="edge1" class="edge">
<title>validators&#45;&gt;common</title>
<path fill="none" stroke="red" d="M106.26,-100.8C98.24,-89.4 87.46,-74.05 78.32,-61.05"/>
<polygon fill="red" stroke="red" points="81.2,-59.08 72.59,-52.91 75.48,-63.1 81.2,-59.08"/>
</g>
<!-- validators&#45;&gt;types -->
<g id="edge2" class="edge">
<title>validators&#45;&gt;types</title>
<path fill="none" stroke="red" d="M125.25,-100.41C129.93,-89.38 136.11,-74.8 141.46,-62.21"/>
<polygon fill="red" stroke="red" points="144.6,-63.76 145.29,-53.18 138.16,-61.02 144.6,-63.76"/>
</g>
<!-- validators&#45;&gt;validators -->
<g id="edge3" class="edge">
<title>validators&#45;&gt;validators</title>
<path fill="none" stroke="red" d="M146.85,-133.09C165.4,-136.9 183.26,-132.03 183.26,-118.5 183.26,-107.72 171.92,-102.44 157.93,-102.66"/>
<polygon fill="red" stroke="red" points="157.9,-99.14 148.35,-103.74 158.68,-106.1 157.9,-99.14"/>
</g>
<!-- jsonschema -->
<g id="node9" class="node">
<title>jsonschema</title>
<g id="a_node9"><a xlink:href="https://github.com/tdegrunt/jsonschema#readme" xlink:title="jsonschema">
<polygon fill="none" stroke="black" points="286.88,-52 207.12,-52 207.12,-16 286.88,-16 286.88,-52"/>
<text text-anchor="middle" x="247" y="-28.95" font-family="Times,serif" font-size="14.00">jsonschema</text>
</a>
</g>
</g>
<!-- validators&#45;&gt;jsonschema -->
<g id="edge4" class="edge">
<title>validators&#45;&gt;jsonschema</title>
<path fill="none" stroke="red" d="M152.3,-105.83C166.13,-100.37 181.89,-93.15 195,-84.5 205.3,-77.71 215.41,-68.77 223.94,-60.35"/>
<polygon fill="red" stroke="red" points="226.35,-62.9 230.83,-53.3 221.34,-58.01 226.35,-62.9"/>
</g>
<!-- calls -->
<g id="node4" class="node">
<title>calls</title>
<ellipse fill="none" stroke="green" cx="84" cy="-203" rx="27.81" ry="18"/>
<text text-anchor="middle" x="84" y="-197.95" font-family="Times,serif" font-size="14.00">calls</text>
</g>
<!-- calls&#45;&gt;common -->
<g id="edge5" class="edge">
<title>calls&#45;&gt;common</title>
<path fill="none" stroke="green" d="M59.5,-193.8C48.08,-188.61 35.58,-180.63 29,-169 12.25,-139.41 20.68,-125.47 29,-92.5 31.73,-81.68 36.94,-70.68 42.33,-61.24"/>
<polygon fill="green" stroke="green" points="45.14,-63.35 47.34,-52.98 39.16,-59.72 45.14,-63.35"/>
</g>
<!-- calls&#45;&gt;types -->
<g id="edge6" class="edge">
<title>calls&#45;&gt;types</title>
<path fill="none" stroke="green" d="M71.21,-186.86C67.49,-181.55 63.92,-175.33 62,-169 52.15,-136.46 39.9,-118.34 62,-92.5 76.91,-75.06 93.13,-95.97 113,-84.5 122.84,-78.82 131.23,-69.72 137.74,-60.86"/>
<polygon fill="green" stroke="green" points="140.51,-63.02 143.21,-52.77 134.71,-59.1 140.51,-63.02"/>
</g>
<!-- calls&#45;&gt;validators -->
<g id="edge7" class="edge">
<title>calls&#45;&gt;validators</title>
<path fill="none" stroke="green" d="M90.88,-185.3C95.38,-174.38 101.37,-159.84 106.58,-147.21"/>
<polygon fill="green" stroke="green" points="109.74,-148.72 110.32,-138.14 103.27,-146.05 109.74,-148.72"/>
</g>
<!-- todo_3 -->
<g id="node7" class="node">
<title>todo_3</title>
<g id="a_node7"><a xlink:href="https://npmjs.com/package/@todo-3.0/request" xlink:title="Todo&#45;3.0">
<polygon fill="none" stroke="black" points="370.75,-52 305.25,-52 305.25,-16 370.75,-16 370.75,-52"/>
<text text-anchor="middle" x="338" y="-28.95" font-family="Times,serif" font-size="14.00">Todo&#45;3.0</text>
</a>
</g>
</g>
<!-- calls&#45;&gt;todo_3 -->
<g id="edge8" class="edge">
<title>calls&#45;&gt;todo_3</title>
<path fill="none" stroke="green" d="M111.25,-198.11C134.82,-193.81 169.1,-185.22 195,-169 234.06,-144.54 225.5,-116.24 265,-92.5 277.2,-85.17 283.94,-92.06 296,-84.5 305.54,-78.52 314.03,-69.67 320.83,-61.11"/>
<polygon fill="green" stroke="green" points="323.49,-63.4 326.63,-53.28 317.86,-59.24 323.49,-63.4"/>
</g>
<!-- server_handler_types -->
<g id="node5" class="node">
<title>server_handler_types</title>
<ellipse fill="none" stroke="blue" cx="367" cy="-118.5" rx="89.74" ry="18"/>
<text text-anchor="middle" x="367" y="-113.45" font-family="Times,serif" font-size="14.00">server_handler_types</text>
</g>
<!-- server_handler_types&#45;&gt;types -->
<g id="edge9" class="edge">
<title>server_handler_types&#45;&gt;types</title>
<path fill="none" stroke="blue" d="M314.35,-103.56C297.98,-99.57 279.82,-95.5 263,-92.5 233.04,-87.16 221.82,-98.88 195,-84.5 184.53,-78.89 175.56,-69.51 168.64,-60.41"/>
<polygon fill="blue" stroke="blue" points="171.66,-58.62 163.05,-52.45 165.93,-62.64 171.66,-58.62"/>
</g>
<!-- server_router -->
<g id="node6" class="node">
<title>server_router</title>
<ellipse fill="none" stroke="orange" cx="352" cy="-203" rx="60.05" ry="18"/>
<text text-anchor="middle" x="352" y="-197.95" font-family="Times,serif" font-size="14.00">server_router</text>
</g>
<!-- server_router&#45;&gt;common -->
<g id="edge10" class="edge">
<title>server_router&#45;&gt;common</title>
<path fill="none" stroke="orange" d="M310.6,-189.6C296.46,-184.39 280.96,-177.52 268,-169 227.95,-142.67 235.25,-113.15 192,-92.5 160.55,-77.49 145.79,-98.78 114,-84.5 101.39,-78.84 89.75,-69.06 80.53,-59.68"/>
<polygon fill="orange" stroke="orange" points="83.17,-57.38 73.81,-52.42 78.04,-62.13 83.17,-57.38"/>
</g>
<!-- server_router&#45;&gt;validators -->
<g id="edge11" class="edge">
<title>server_router&#45;&gt;validators</title>
<path fill="none" stroke="orange" d="M306.86,-190.69C284.97,-184.84 258.4,-177.21 235,-169 208.71,-159.77 179.88,-147.6 157.41,-137.63"/>
<polygon fill="orange" stroke="orange" points="158.87,-134.45 148.31,-133.56 156.01,-140.84 158.87,-134.45"/>
</g>
<!-- server_router&#45;&gt;server_handler_types -->
<g id="edge12" class="edge">
<title>server_router&#45;&gt;server_handler_types</title>
<path fill="none" stroke="orange" d="M355.11,-184.91C357.05,-174.25 359.59,-160.27 361.82,-147.97"/>
<polygon fill="orange" stroke="orange" points="365.23,-148.81 363.57,-138.35 358.34,-147.56 365.23,-148.81"/>
</g>
<!-- expressjs -->
<g id="node8" class="node">
<title>expressjs</title>
<g id="a_node8"><a xlink:href="https://expressjs.com/" xlink:title="Node Express">
<polygon fill="none" stroke="black" points="480.88,-52 389.12,-52 389.12,-16 480.88,-16 480.88,-52"/>
<text text-anchor="middle" x="435" y="-28.95" font-family="Times,serif" font-size="14.00">Node Express</text>
</a>
</g>
</g>
<!-- server_router&#45;&gt;expressjs -->
<g id="edge13" class="edge">
<title>server_router&#45;&gt;expressjs</title>
<path fill="none" stroke="orange" d="M410.93,-199.09C431.69,-194.87 453.06,-186.21 466,-169 489.74,-137.41 469.83,-90.67 452.79,-61.56"/>
<polygon fill="orange" stroke="orange" points="455.96,-60.04 447.75,-53.35 449.99,-63.7 455.96,-60.04"/>
</g>
</g>
</svg>
