<?xml version="1.0" encoding="UTF-8" standalone="no"?>
<!DOCTYPE svg PUBLIC "-//W3C//DTD SVG 1.1//EN"
 "http://www.w3.org/Graphics/SVG/1.1/DTD/svg11.dtd">
<!-- Generated by graphviz version 12.2.1 (0)
 -->
<!-- Title: G Pages: 1 -->
<svg width="501pt" height="267pt"
 viewBox="0.00 0.00 501.00 267.25" xmlns="http://www.w3.org/2000/svg" xmlns:xlink="http://www.w3.org/1999/xlink">
<g id="graph0" class="graph" transform="scale(1 1) rotate(0) translate(4 263.25)">
<title>G</title>
<polygon fill="none" stroke="none" points="-4,4 -4,-263.25 497,-263.25 497,4 -4,4"/>
<g id="clust1" class="cluster">
<title>cluster_2</title>
<polygon fill="none" stroke="black" points="8,-8 8,-167.5 187,-167.5 187,-8 8,-8"/>
<text text-anchor="middle" x="97.5" y="-150.2" font-family="Times,serif" font-size="14.00">Common</text>
</g>
<g id="clust2" class="cluster">
<title>cluster_0</title>
<polygon fill="none" stroke="black" points="43,-175.5 43,-251.25 123,-251.25 123,-175.5 43,-175.5"/>
<text text-anchor="middle" x="83" y="-233.95" font-family="Times,serif" font-size="14.00">Client Only</text>
</g>
<g id="clust3" class="cluster">
<title>cluster_1</title>
<polygon fill="none" stroke="black" points="265,-91.75 265,-251.25 455,-251.25 455,-91.75 265,-91.75"/>
<text text-anchor="middle" x="360" y="-233.95" font-family="Times,serif" font-size="14.00">Server Only</text>
</g>
<g id="clust4" class="cluster">
<title>cluster_3</title>
<polygon fill="none" stroke="black" points="195,-8 195,-83.75 485,-83.75 485,-8 195,-8"/>
<text text-anchor="middle" x="340" y="-66.45" font-family="Times,serif" font-size="14.00">External Dependencies</text>
</g>
<!-- common -->
<g id="node1" class="node">
<title>common</title>
<ellipse fill="none" stroke="black" cx="59" cy="-34" rx="42.58" ry="18"/>
<text text-anchor="middle" x="59" y="-28.57" font-family="Times,serif" font-size="14.00">common</text>
</g>
<!-- types -->
<g id="node2" class="node">
<title>types</title>
<ellipse fill="none" stroke="black" cx="149" cy="-34" rx="29.61" ry="18"/>
<text text-anchor="middle" x="149" y="-28.57" font-family="Times,serif" font-size="14.00">types</text>
</g>
<!-- validators -->
<g id="node3" class="node">
<title>validators</title>
<ellipse fill="none" stroke="red" cx="115" cy="-117.75" rx="45.57" ry="18"/>
<text text-anchor="middle" x="115" y="-112.33" font-family="Times,serif" font-size="14.00">validators</text>
</g>
<!-- validators&#45;&gt;common -->
<g id="edge1" class="edge">
<title>validators&#45;&gt;common</title>
<path fill="none" stroke="red" d="M103.67,-100.21C95.98,-88.98 85.65,-73.9 76.86,-61.07"/>
<polygon fill="red" stroke="red" points="79.9,-59.32 71.36,-53.05 74.13,-63.28 79.9,-59.32"/>
</g>
<!-- validators&#45;&gt;types -->
<g id="edge2" class="edge">
<title>validators&#45;&gt;types</title>
<path fill="none" stroke="red" d="M122.04,-99.81C126.56,-88.96 132.52,-74.63 137.68,-62.21"/>
<polygon fill="red" stroke="red" points="140.77,-63.89 141.38,-53.31 134.31,-61.2 140.77,-63.89"/>
</g>
<!-- validators&#45;&gt;validators -->
<g id="edge3" class="edge">
<title>validators&#45;&gt;validators</title>
<path fill="none" stroke="red" d="M143.44,-132.28C161.39,-135.92 178.57,-131.08 178.57,-117.75 178.57,-107.23 167.88,-102 154.54,-102.05"/>
<polygon fill="red" stroke="red" points="154.52,-98.53 144.94,-103.06 155.26,-105.49 154.52,-98.53"/>
</g>
<!-- jsonschema -->
<g id="node9" class="node">
<title>jsonschema</title>
<g id="a_node9"><a xlink:href="https://github.com/tdegrunt/jsonschema#readme" xlink:title="jsonschema">
<polygon fill="none" stroke="black" points="282.88,-52 203.12,-52 203.12,-16 282.88,-16 282.88,-52"/>
<text text-anchor="middle" x="243" y="-28.57" font-family="Times,serif" font-size="14.00">jsonschema</text>
</a>
</g>
</g>
<!-- validators&#45;&gt;jsonschema -->
<g id="edge4" class="edge">
<title>validators&#45;&gt;jsonschema</title>
<path fill="none" stroke="red" d="M148.44,-105.12C162.17,-99.62 177.9,-92.36 191,-83.75 201.08,-77.12 211.03,-68.47 219.48,-60.3"/>
<polygon fill="red" stroke="red" points="221.73,-63.01 226.31,-53.45 216.77,-58.06 221.73,-63.01"/>
</g>
<!-- calls -->
<g id="node4" class="node">
<title>calls</title>
<ellipse fill="none" stroke="green" cx="83" cy="-201.5" rx="27.11" ry="18"/>
<text text-anchor="middle" x="83" y="-196.07" font-family="Times,serif" font-size="14.00">calls</text>
</g>
<!-- calls&#45;&gt;common -->
<g id="edge5" class="edge">
<title>calls&#45;&gt;common</title>
<path fill="none" stroke="green" d="M58.94,-192.79C47.08,-187.64 33.89,-179.55 27,-167.5 10.3,-138.27 18.45,-124.31 27,-91.75 29.8,-81.1 35.09,-70.34 40.59,-61.1"/>
<polygon fill="green" stroke="green" points="43.53,-62.99 45.94,-52.67 37.62,-59.24 43.53,-62.99"/>
</g>
<!-- calls&#45;&gt;types -->
<g id="edge6" class="edge">
<title>calls&#45;&gt;types</title>
<path fill="none" stroke="green" d="M69.63,-185.44C65.75,-180.14 62.01,-173.9 60,-167.5 49.91,-135.38 38.12,-117.33 60,-91.75 74.91,-74.31 91.23,-95.39 111,-83.75 120.41,-78.21 128.34,-69.38 134.48,-60.74"/>
<polygon fill="green" stroke="green" points="137.3,-62.82 139.81,-52.53 131.43,-59.01 137.3,-62.82"/>
</g>
<!-- calls&#45;&gt;validators -->
<g id="edge7" class="edge">
<title>calls&#45;&gt;validators</title>
<path fill="none" stroke="green" d="M89.63,-183.56C93.81,-172.89 99.3,-158.86 104.1,-146.58"/>
<polygon fill="green" stroke="green" points="107.33,-147.95 107.72,-137.36 100.81,-145.39 107.33,-147.95"/>
</g>
<!-- todo_3 -->
<g id="node7" class="node">
<title>todo_3</title>
<polygon fill="none" stroke="black" points="367.12,-52 300.88,-52 300.88,-16 367.12,-16 367.12,-52"/>
<text text-anchor="middle" x="334" y="-28.57" font-family="Times,serif" font-size="14.00">Todo&#45;3.0</text>
</g>
<!-- calls&#45;&gt;todo_3 -->
<g id="edge8" class="edge">
<title>calls&#45;&gt;todo_3</title>
<path fill="none" stroke="green" d="M109.49,-196.43C132.42,-192.01 165.76,-183.35 191,-167.5 229.82,-143.12 221.65,-115.27 261,-91.75 273.21,-84.45 279.91,-91.26 292,-83.75 301.24,-78.01 309.52,-69.58 316.25,-61.35"/>
<polygon fill="green" stroke="green" points="318.96,-63.56 322.22,-53.48 313.38,-59.33 318.96,-63.56"/>
</g>
<!-- server_handler_types -->
<g id="node5" class="node">
<title>server_handler_types</title>
<ellipse fill="none" stroke="blue" cx="360" cy="-117.75" rx="86.99" ry="18"/>
<text text-anchor="middle" x="360" y="-112.33" font-family="Times,serif" font-size="14.00">server_handler_types</text>
</g>
<!-- server_handler_types&#45;&gt;types -->
<g id="edge9" class="edge">
<title>server_handler_types&#45;&gt;types</title>
<path fill="none" stroke="blue" d="M308.89,-102.78C292.99,-98.79 275.35,-94.72 259,-91.75 229.06,-86.31 217.87,-98.03 191,-83.75 180.86,-78.36 172.09,-69.44 165.22,-60.69"/>
<polygon fill="blue" stroke="blue" points="168.12,-58.73 159.43,-52.66 162.45,-62.82 168.12,-58.73"/>
</g>
<!-- server_router -->
<g id="node6" class="node">
<title>server_router</title>
<ellipse fill="none" stroke="orange" cx="345" cy="-201.5" rx="58.05" ry="18"/>
<text text-anchor="middle" x="345" y="-196.07" font-family="Times,serif" font-size="14.00">server_router</text>
</g>
<!-- server_router&#45;&gt;common -->
<g id="edge10" class="edge">
<title>server_router&#45;&gt;common</title>
<path fill="none" stroke="orange" d="M305.52,-188.02C291.79,-182.76 276.66,-175.89 264,-167.5 224.25,-141.15 231.09,-112.19 188,-91.75 156.52,-76.81 141.64,-98.36 110,-83.75 98.2,-78.3 87.42,-69 78.85,-59.97"/>
<polygon fill="orange" stroke="orange" points="81.6,-57.8 72.34,-52.66 76.38,-62.46 81.6,-57.8"/>
</g>
<!-- server_router&#45;&gt;validators -->
<g id="edge11" class="edge">
<title>server_router&#45;&gt;validators</title>
<path fill="none" stroke="orange" d="M301.59,-189.21C280.15,-183.31 254.02,-175.64 231,-167.5 204.98,-158.3 176.39,-146.31 154.11,-136.52"/>
<polygon fill="orange" stroke="orange" points="155.66,-133.38 145.1,-132.53 152.82,-139.78 155.66,-133.38"/>
</g>
<!-- server_router&#45;&gt;server_handler_types -->
<g id="edge12" class="edge">
<title>server_router&#45;&gt;server_handler_types</title>
<path fill="none" stroke="orange" d="M348.18,-183.16C350.09,-172.76 352.57,-159.27 354.76,-147.32"/>
<polygon fill="orange" stroke="orange" points="358.19,-148.02 356.55,-137.55 351.3,-146.75 358.19,-148.02"/>
</g>
<!-- expressjs -->
<g id="node8" class="node">
<title>expressjs</title>
<g id="a_node8"><a xlink:href="https://expressjs.com/" xlink:title="Node Express">
<polygon fill="none" stroke="black" points="477.25,-52 384.75,-52 384.75,-16 477.25,-16 477.25,-52"/>
<text text-anchor="middle" x="431" y="-28.57" font-family="Times,serif" font-size="14.00">Node Express</text>
</a>
</g>
</g>
<!-- server_router&#45;&gt;expressjs -->
<g id="edge13" class="edge">
<title>server_router&#45;&gt;expressjs</title>
<path fill="none" stroke="orange" d="M401.83,-197.32C422.24,-193.09 443.32,-184.5 456,-167.5 478.94,-136.75 462.26,-91.07 447.29,-62.18"/>
<polygon fill="orange" stroke="orange" points="450.52,-60.78 442.66,-53.68 444.37,-64.14 450.52,-60.78"/>
</g>
</g>
</svg>
