<?xml version="1.0" encoding="UTF-8" standalone="no"?>
<!DOCTYPE svg PUBLIC "-//W3C//DTD SVG 1.1//EN"
 "http://www.w3.org/Graphics/SVG/1.1/DTD/svg11.dtd">
<!-- Generated by graphviz version 15.1.0 (0)
 -->
<!-- Title: G Pages: 1 -->
<svg width="594pt" height="272pt"
 viewBox="0.00 0.00 594.00 272.00" xmlns="http://www.w3.org/2000/svg" xmlns:xlink="http://www.w3.org/1999/xlink">
<g id="graph0" class="graph" transform="scale(1 1) rotate(0) translate(4 267.75)">
<title>G</title>
<polygon fill="none" stroke="none" points="-4,4 -4,-267.75 590,-267.75 590,4 -4,4"/>
<g id="clust1" class="cluster">
<title>cluster_2</title>
<polygon fill="none" stroke="black" points="8,-8 8,-170.5 226,-170.5 226,-8 8,-8"/>
<text xml:space="preserve" text-anchor="middle" x="117" y="-153.2" font-family="Times,serif" font-size="14.00">Common</text>
</g>
<g id="clust2" class="cluster">
<title>cluster_0</title>
<polygon fill="none" stroke="black" points="52,-178.5 52,-255.75 148,-255.75 148,-178.5 52,-178.5"/>
<text xml:space="preserve" text-anchor="middle" x="100" y="-238.45" font-family="Times,serif" font-size="14.00">Client Only</text>
</g>
<g id="clust3" class="cluster">
<title>cluster_1</title>
<polygon fill="none" stroke="black" points="304,-93.25 304,-255.75 558,-255.75 558,-93.25 304,-93.25"/>
<text xml:space="preserve" text-anchor="middle" x="431" y="-238.45" font-family="Times,serif" font-size="14.00">Server Only</text>
</g>
<g id="clust4" class="cluster">
<title>cluster_3</title>
<polygon fill="none" stroke="black" points="234,-8 234,-85.25 578,-85.25 578,-8 234,-8"/>
<text xml:space="preserve" text-anchor="middle" x="406" y="-67.95" font-family="Times,serif" font-size="14.00">External Dependencies</text>
</g>
<!-- common -->
<g id="node1" class="node">
<title>common</title>
<ellipse fill="none" stroke="black" cx="69" cy="-34" rx="53.31" ry="18"/>
<text xml:space="preserve" text-anchor="middle" x="69" y="-29.32" font-family="Times,serif" font-size="14.00">common</text>
</g>
<!-- types -->
<g id="node2" class="node">
<title>types</title>
<ellipse fill="none" stroke="black" cx="179" cy="-34" rx="38.58" ry="18"/>
<text xml:space="preserve" text-anchor="middle" x="179" y="-29.32" font-family="Times,serif" font-size="14.00">types</text>
</g>
<!-- validators -->
<g id="node3" class="node">
<title>validators</title>
<ellipse fill="none" stroke="red" cx="139" cy="-119.25" rx="61.2" ry="18"/>
<text xml:space="preserve" text-anchor="middle" x="139" y="-114.58" font-family="Times,serif" font-size="14.00">validators</text>
</g>
<!-- validators&#45;&gt;common -->
<g id="edge1" class="edge">
<title>validators&#45;&gt;common</title>
<path fill="none" stroke="red" d="M124.83,-101.4C114.97,-89.67 101.63,-73.8 90.46,-60.52"/>
<polygon fill="red" stroke="red" points="93.23,-58.38 84.12,-52.98 87.88,-62.89 93.23,-58.38"/>
</g>
<!-- validators&#45;&gt;types -->
<g id="edge2" class="edge">
<title>validators&#45;&gt;types</title>
<path fill="none" stroke="red" d="M147.29,-101C152.69,-89.76 159.84,-74.87 165.99,-62.07"/>
<polygon fill="red" stroke="red" points="169.03,-63.84 170.2,-53.31 162.72,-60.8 169.03,-63.84"/>
</g>
<!-- validators&#45;&gt;validators -->
<g id="edge3" class="edge">
<title>validators&#45;&gt;validators</title>
<path fill="none" stroke="red" d="M175.25,-134.17C197.32,-137.63 218.2,-132.65 218.2,-119.25 218.2,-108.15 203.88,-102.83 186.43,-103.29"/>
<polygon fill="red" stroke="red" points="186.39,-99.78 176.76,-104.19 187.04,-106.75 186.39,-99.78"/>
</g>
<!-- jsonschema -->
<g id="node9" class="node">
<title>jsonschema</title>
<g id="a_node9"><a xlink:href="https://github.com/tdegrunt/jsonschema#readme" xlink:title="jsonschema">
<polygon fill="none" stroke="black" points="341.62,-52 242.38,-52 242.38,-16 341.62,-16 341.62,-52"/>
<text xml:space="preserve" text-anchor="middle" x="292" y="-29.32" font-family="Times,serif" font-size="14.00">jsonschema</text>
</a>
</g>
</g>
<!-- validators&#45;&gt;jsonschema -->
<g id="edge4" class="edge">
<title>validators&#45;&gt;jsonschema</title>
<path fill="none" stroke="red" d="M181.51,-106.11C197.26,-100.77 214.93,-93.77 230,-85.25 242.41,-78.24 254.85,-68.75 265.31,-59.9"/>
<polygon fill="red" stroke="red" points="267.56,-62.58 272.79,-53.37 262.95,-57.31 267.56,-62.58"/>
</g>
<!-- calls -->
<g id="node4" class="node">
<title>calls</title>
<ellipse fill="none" stroke="green" cx="100" cy="-204.5" rx="33.85" ry="18"/>
<text xml:space="preserve" text-anchor="middle" x="100" y="-199.82" font-family="Times,serif" font-size="14.00">calls</text>
</g>
<!-- calls&#45;&gt;common -->
<g id="edge5" class="edge">
<title>calls&#45;&gt;common</title>
<path fill="none" stroke="green" d="M69.95,-195.67C57.16,-190.68 43.48,-182.78 36,-170.5 18.13,-141.18 27.25,-126.45 36,-93.25 38.92,-82.19 44.47,-71.03 50.19,-61.47"/>
<polygon fill="green" stroke="green" points="53.11,-63.4 55.55,-53.09 47.21,-59.63 53.11,-63.4"/>
</g>
<!-- calls&#45;&gt;types -->
<g id="edge6" class="edge">
<title>calls&#45;&gt;types</title>
<path fill="none" stroke="green" d="M81.74,-188.83C76.62,-183.64 71.72,-177.37 69,-170.5 56.36,-138.58 46.33,-119.03 69,-93.25 78.17,-82.82 118.6,-91.52 131,-85.25 142.58,-79.39 152.91,-69.58 160.99,-60.17"/>
<polygon fill="green" stroke="green" points="163.54,-62.59 167.07,-52.6 158.08,-58.21 163.54,-62.59"/>
</g>
<!-- calls&#45;&gt;validators -->
<g id="edge7" class="edge">
<title>calls&#45;&gt;validators</title>
<path fill="none" stroke="green" d="M107.89,-186.65C113.14,-175.44 120.16,-160.46 126.2,-147.57"/>
<polygon fill="green" stroke="green" points="129.27,-149.27 130.34,-138.73 122.93,-146.3 129.27,-149.27"/>
</g>
<!-- todo_3 -->
<g id="node7" class="node">
<title>todo_3</title>
<g id="a_node7"><a xlink:href="https://npmjs.com/package/@todo-3.0/request" xlink:title="Todo&#45;3.0">
<polygon fill="none" stroke="black" points="436.38,-52 359.62,-52 359.62,-16 436.38,-16 436.38,-52"/>
<text xml:space="preserve" text-anchor="middle" x="398" y="-29.32" font-family="Times,serif" font-size="14.00">Todo&#45;3.0</text>
</a>
</g>
</g>
<!-- calls&#45;&gt;todo_3 -->
<g id="edge8" class="edge">
<title>calls&#45;&gt;todo_3</title>
<path fill="none" stroke="green" d="M133.29,-200.44C160.85,-196.69 200.17,-188.45 230,-170.5 269.7,-146.62 259.23,-115.26 300,-93.25 320.19,-82.35 330.73,-95.99 351,-85.25 361.92,-79.46 371.7,-70.14 379.47,-61.09"/>
<polygon fill="green" stroke="green" points="382.07,-63.44 385.59,-53.45 376.6,-59.06 382.07,-63.44"/>
</g>
<!-- server_handler_types -->
<g id="node5" class="node">
<title>server_handler_types</title>
<ellipse fill="none" stroke="blue" cx="431" cy="-119.25" rx="118.55" ry="18"/>
<text xml:space="preserve" text-anchor="middle" x="431" y="-114.58" font-family="Times,serif" font-size="14.00">server_handler_types</text>
</g>
<!-- server_handler_types&#45;&gt;types -->
<g id="edge9" class="edge">
<title>server_handler_types&#45;&gt;types</title>
<path fill="none" stroke="blue" d="M361.44,-104.24C341.04,-100.39 318.67,-96.4 298,-93.25 267.92,-88.66 257.43,-98.42 230,-85.25 217.82,-79.4 206.78,-69.46 198.12,-59.95"/>
<polygon fill="blue" stroke="blue" points="201.01,-57.95 191.85,-52.63 195.69,-62.5 201.01,-57.95"/>
</g>
<!-- server_router -->
<g id="node6" class="node">
<title>server_router</title>
<ellipse fill="none" stroke="orange" cx="411" cy="-204.5" rx="79.62" ry="18"/>
<text xml:space="preserve" text-anchor="middle" x="411" y="-199.82" font-family="Times,serif" font-size="14.00">server_router</text>
</g>
<!-- server_router&#45;&gt;common -->
<g id="edge10" class="edge">
<title>server_router&#45;&gt;common</title>
<path fill="none" stroke="orange" d="M353.53,-191.65C336.51,-186.67 318.34,-179.8 303,-170.5 261.82,-145.53 270.61,-113.69 227,-93.25 188.23,-75.08 170.73,-101.22 131,-85.25 116.6,-79.46 102.92,-69.11 92.1,-59.31"/>
<polygon fill="orange" stroke="orange" points="94.82,-57.07 85.17,-52.7 89.99,-62.13 94.82,-57.07"/>
</g>
<!-- server_router&#45;&gt;validators -->
<g id="edge11" class="edge">
<title>server_router&#45;&gt;validators</title>
<path fill="none" stroke="orange" d="M352.9,-191.77C327.27,-186.12 296.92,-178.77 270,-170.5 240.56,-161.45 208.24,-149.09 183.08,-138.88"/>
<polygon fill="orange" stroke="orange" points="184.74,-135.78 174.16,-135.23 182.09,-142.26 184.74,-135.78"/>
</g>
<!-- server_router&#45;&gt;server_handler_types -->
<g id="edge12" class="edge">
<title>server_router&#45;&gt;server_handler_types</title>
<path fill="none" stroke="orange" d="M415.14,-186.25C417.77,-175.31 421.23,-160.9 424.25,-148.34"/>
<polygon fill="orange" stroke="orange" points="427.57,-149.49 426.51,-138.95 420.77,-147.85 427.57,-149.49"/>
</g>
<!-- expressjs -->
<g id="node8" class="node">
<title>expressjs</title>
<g id="a_node8"><a xlink:href="https://expressjs.com/" xlink:title="Node Express">
<polygon fill="none" stroke="black" points="569.88,-52 454.12,-52 454.12,-16 569.88,-16 569.88,-52"/>
<text xml:space="preserve" text-anchor="middle" x="512" y="-29.32" font-family="Times,serif" font-size="14.00">Node Express</text>
</a>
</g>
</g>
<!-- server_router&#45;&gt;expressjs -->
<g id="edge13" class="edge">
<title>server_router&#45;&gt;expressjs</title>
<path fill="none" stroke="orange" d="M481.94,-196.14C514.87,-191.11 548.96,-183.03 559,-170.5 580.47,-143.71 570.43,-125.62 559,-93.25 554.8,-81.36 547.04,-70.12 539.01,-60.74"/>
<polygon fill="orange" stroke="orange" points="541.7,-58.5 532.37,-53.48 536.53,-63.22 541.7,-58.5"/>
</g>
</g>
</svg>
